<?xml version="1.0" encoding="UTF-8"?>
<svg width="3437px" height="798px" viewBox="0 0 3437 798" version="1.1" xmlns="http://www.w3.org/2000/svg" xmlns:xlink="http://www.w3.org/1999/xlink">
    <title>Group</title>
    <g id="v3multifonts-无描边上-描边下--纯路径" stroke="none" stroke-width="1" fill="none" fill-rule="evenodd">
        <g id="Group" transform="translate(0.2067, 0)" fill-rule="nonzero">
            <g id="I" transform="translate(1635.2933, -385)" fill="#5B1BC6">
                <polygon id="Path" points="36.8164062 1176 203.857422 390.746094 330.615234 390.746094 163.305664 1176"></polygon>
            </g>
            <g id="L" transform="translate(2866.7933, -254)" fill="#000000">
                <polygon id="Path" points="65.3675408 1046 65.3675408 260.257812 205.097155 260.257812 205.097155 925.172363 569.302172 925.172363 569.302172 1046"></polygon>
            </g>
            <g id="C" transform="translate(1789.7933, -243)" fill="#F12B72">
                <path d="M367.981681,1039.42188 C304.934196,1039.42188 250.157178,1026.39212 203.650626,1000.3326 C157.144075,974.273076 121.161613,937.372721 95.7032387,889.631531 C70.2448647,841.89034 57.5156777,785.565979 57.5156777,720.658447 C57.5156777,658.144714 67.6394519,598.279526 87.8870003,541.062881 C108.134549,483.846237 137.070401,432.855357 174.694556,388.09024 C212.318712,343.325124 257.407315,308.016591 309.960365,282.164642 C362.513414,256.312693 420.98222,243.386719 485.366782,243.386719 C529.409446,243.386719 569.510968,249.766139 605.671348,262.524979 C641.831728,275.283819 672.899894,293.757584 698.875846,317.946274 C724.851798,342.134964 744.802818,371.205602 758.728904,405.158188 C772.65499,439.110774 779.356549,477.453339 778.833579,520.185883 L640.81005,520.185883 C639.580802,495.714142 635.035819,473.913859 627.175102,454.785034 C619.314384,435.656209 608.493766,419.487284 594.713248,406.278259 C580.932731,393.069234 564.505017,383.072159 545.430106,376.287033 C526.355196,369.501907 504.878399,366.109344 480.999717,366.109344 C435.339622,366.109344 394.746131,376.25738 359.219245,396.553452 C323.692359,416.849523 293.65261,444.015635 269.099998,478.051788 C244.547385,512.087941 225.890311,550.06928 213.128776,591.995804 C200.36724,633.922328 193.986472,676.402822 193.986472,719.437286 C193.986472,759.932383 200.933341,794.940343 214.827079,824.461166 C228.720817,853.98199 249.17324,876.733861 276.184348,892.716782 C303.195457,908.699702 336.244977,916.691162 375.332908,916.691162 C400.742759,916.691162 424.920666,913.330948 447.86663,906.610519 C470.812593,899.890091 491.984774,889.949626 511.38317,876.789124 C530.781567,863.628621 547.981605,847.570221 562.983283,828.613922 C577.984962,809.657623 590.311139,788.005605 599.961814,763.657867 L738.64849,763.657867 C725.439465,805.667959 706.71365,843.619644 682.471046,877.512924 C658.228441,911.406204 629.816907,940.42158 597.236442,964.559052 C564.655977,988.696523 528.967348,1007.20803 490.170554,1020.09357 C451.373761,1032.97911 410.644136,1039.42188 367.981681,1039.42188 Z" id="Path"></path>
            </g>
            <g id="A2" transform="translate(2345.3234, -254)" fill="#FF1B4B">
                <path d="M0,1046 L410.800781,260.257812 L585.961304,260.257812 L735.183105,1046 L586.702881,1046 L517.876282,633.188721 C511.361389,589.375244 504.613037,542.974487 497.631226,493.98645 C490.649414,444.998413 482.884827,387.051025 474.337463,320.144287 L513.146667,320.144287 C482.522278,387.051025 455.608521,444.998413 432.405396,493.98645 C409.202271,542.974487 386.743469,589.375244 365.028992,633.188721 L154.997864,1046 L0,1046 Z M197.737427,858.41394 L216.911316,743.667236 L618.953247,743.667236 L599.779358,858.41394 L197.737427,858.41394 Z" id="Shape"></path>
            </g>
            <g id="T" transform="translate(354.7933, -254)" fill="#3CE547">
                <polygon id="Path" points="105.788093 366.492859 105.788093 260.257812 725.211006 260.257812 725.211006 366.492859 476.81562 366.492859 476.81562 1046 355.015693 1046 355.015693 366.492859"></polygon>
            </g>
            <g id="y" transform="translate(862.803, -496)" fill="#FFE423">
                <path d="M97.005,1293.4 C60.2595833,1293.4 34.9057292,1290.41542 20.9434375,1284.44625 L0,1275.4925 L13.2675,1185.0125 L71.195,1186.86125 C102.430417,1188.50458 126.551771,1185.78281 143.559063,1178.69594 C160.566354,1171.60906 173.012187,1162.92115 180.896563,1152.63219 C188.780938,1142.34323 194.6625,1133.32 198.54125,1125.5625 L219.49375,1081.88125 L79.85875,502.28 L218.1525,502.28 L306.8925,926.115 L519.6075,502.28 L655.11,502.28 L328.334375,1124.29375 C303.454792,1169.55792 278.735312,1204.39719 254.175938,1228.81156 C229.616563,1253.22594 204.434896,1270.09427 178.630938,1279.41656 C152.826979,1288.73885 125.618333,1293.4 97.005,1293.4 Z" id="Path"></path>
            </g>
            <g id="P" transform="translate(1179.2933, -385)" fill="#19B0FF">
                <path d="M37.4892578,1176 L203.456055,390.746094 L401.380859,390.746094 C461,390.746094 509.02653,399.742676 545.460449,417.73584 C581.894368,435.729004 608.391764,460.928385 624.952637,493.333984 C641.513509,525.739583 649.793945,563.605794 649.793945,606.932617 C649.793945,651.870768 641.871582,691.437826 626.026855,725.633789 C610.182129,759.829753 587.35498,788.520345 557.54541,811.705566 C527.73584,834.890788 491.83903,852.302083 449.85498,863.939453 C407.870931,875.576823 360.739583,881.395508 308.460938,881.395508 L226.551758,881.395508 L164.515625,1176 L37.4892578,1176 Z M249.647461,774.779297 L321.888672,774.779297 C362.529948,774.779297 397.710612,768.602539 427.430664,756.249023 C457.150716,743.895508 480.156901,725.499512 496.449219,701.061035 C512.741536,676.622559 520.887695,646.410156 520.887695,610.423828 C520.887695,571.39388 510.190267,542.882324 488.79541,524.88916 C467.400553,506.895996 435.039714,497.899414 391.712891,497.899414 L308.460938,497.899414 L249.647461,774.779297 Z" id="Shape"></path>
            </g>
            <g id="A" transform="translate(0, -254)" fill="#0D35B1">
                <path d="M0,1046 L415.546875,260.257812 L556.916199,260.257812 L709.829407,1046 L587.081909,1046 L509.422302,602.817017 C503.352356,565.265747 496.858063,524.179626 489.939423,479.558655 C483.020782,434.937683 474.875793,379.552856 465.504456,313.404175 L498.619995,313.404175 C467.484741,379.552856 441.106567,434.937683 419.485474,479.558655 C397.86438,524.179626 377.495728,565.265747 358.379517,602.817017 L129.1745,1046 L0,1046 Z M191.936646,841.992126 L208.646851,742.431274 L602.152405,742.431274 L585.4422,841.992126 L191.936646,841.992126 Z" id="Shape"></path>
            </g>
        </g>
    </g>
</svg>